PathFileType	4	(X/Y/Z)	C:\Users\Willi\Documents\UniDataLokal\DATA_Hans_PhD\TD05\3DGAIT_C_W31\marker_experimental.trc
DataRate	CameraRate	NumFrames	NumMarkers	Units	OrigDataRate	OrigDataStartFrame	OrigNumFrames
100.000000	100.000000	4	85	mm	100.000000	175	200
Frame#	Time	RBAK			C7			CLAV			T10			STRN			RASI			RPSI			LPSI			LASI			LPELV			RPELV			RTHI1			RTHI2			RTHI3			RTHI			RKNE			RPAT			RLKNEL			RLKNEM			RLPAT			RTIB1			RTIB2			RTIB3			RTIB			RANK			RHEEL			RTOE			RM5			LTHI1			LTHI2			LTHI3			LTHI			LKNE			LPAT			LLKNE			LLKNEM			LLPAT			LTIB1			LTIB2			LTIB3			LTIB			LANK			LHEEL			LTOE			LM5			*45			*46			*47			*48			*49			*50			*51			*52			*53			*54			*55			*56			*57			*58			*59			*60			*61			*62			*63			*64			*65			*66			*67			*68			*69			*70			*71			*72			*73			*74			*75			*76			*77			*78			*79			*80			*81			*82			*83			*84			
		X1	Y1	Z1	X2	Y2	Z2	X3	Y3	Z3	X4	Y4	Z4	X5	Y5	Z5	X6	Y6	Z6	X7	Y7	Z7	X8	Y8	Z8	X9	Y9	Z9	X10	Y10	Z10	X11	Y11	Z11	X12	Y12	Z12	X13	Y13	Z13	X14	Y14	Z14	X15	Y15	Z15	X16	Y16	Z16	X17	Y17	Z17	X18	Y18	Z18	X19	Y19	Z19	X20	Y20	Z20	X21	Y21	Z21	X22	Y22	Z22	X23	Y23	Z23	X24	Y24	Z24	X25	Y25	Z25	X26	Y26	Z26	X27	Y27	Z27	X28	Y28	Z28	X29	Y29	Z29	X30	Y30	Z30	X31	Y31	Z31	X32	Y32	Z32	X33	Y33	Z33	X34	Y34	Z34	X35	Y35	Z35	X36	Y36	Z36	X37	Y37	Z37	X38	Y38	Z38	X39	Y39	Z39	X40	Y40	Z40	X41	Y41	Z41	X42	Y42	Z42	X43	Y43	Z43	X44	Y44	Z44	X45	Y45	Z45	X46	Y46	Z46	X47	Y47	Z47	X48	Y48	Z48	X49	Y49	Z49	X50	Y50	Z50	X51	Y51	Z51	X52	Y52	Z52	X53	Y53	Z53	X54	Y54	Z54	X55	Y55	Z55	X56	Y56	Z56	X57	Y57	Z57	X58	Y58	Z58	X59	Y59	Z59	X60	Y60	Z60	X61	Y61	Z61	X62	Y62	Z62	X63	Y63	Z63	X64	Y64	Z64	X65	Y65	Z65	X66	Y66	Z66	X67	Y67	Z67	X68	Y68	Z68	X69	Y69	Z69	X70	Y70	Z70	X71	Y71	Z71	X72	Y72	Z72	X73	Y73	Z73	X74	Y74	Z74	X75	Y75	Z75	X76	Y76	Z76	X77	Y77	Z77	X78	Y78	Z78	X79	Y79	Z79	X80	Y80	Z80	X81	Y81	Z81	X82	Y82	Z82	X83	Y83	Z83	X84	Y84	Z84	X85	Y85	Z85	

176	1.75	777.1874999999999	1298.83154296875	-51.7207984924315	797.2420043945311	1381.616333007812	-219.5403900146483	891.6002807617186	1279.90185546875	-235.2207794189451	726.6060180664061	1062.86328125	-207.8248901367186	929.4598388671874	1046.526489257812	-233.5307006835936	912.4219970703125	889.3275146484375	-96.2436447143553	726.9902954101562	925.2908935546875	-152.5910644531249	721.9076538085938	913.1829223632812	-265.0668640136718	903.9419555664064	899.1324462890625	-337.1937255859373	818.3168334960938	935.0296020507812	-380.2362976074217	831.1448364257811	946.48388671875	-52.74961471557602	832.5755004882812	595.8683471679688	-55.88306808471664	870.2596435546875	545.4358520507812	-93.1372451782225	819.2152709960938	498.4669189453126	-83.73023223876937	774.8433227539062	518.25927734375	-41.79992675781236	763.0463256835938	437.8972167968751	-92.28940582275376	831.8009033203125	423.6261596679688	-140.9537963867186	745.62451171875	396.2307128906251	-99.09974670410142	758.5389404296875	399.7918701171876	-213.6412506103514	796.5157470703125	367.1883239746094	-136.6852874755858	766.6259155273438	247.8774414062501	-129.5556182861327	716.1870727539062	205.9536437988282	-108.6604614257811	746.5054931640625	159.7244720458985	-145.450241088867	650.9735717773438	145.1566162109375	-105.1992416381835	673.4427490234375	77.43106079101567	-147.6461029052733	651.8329467773438	38.78504180908207	-208.4784698486327	797.8154296875	37.08490753173833	-86.22322082519517	742.8328857421875	15.47706127166753	-64.84030914306626	948.3060913085939	625.6533813476564	-383.0620117187498	991.1996459960939	591.7210083007814	-348.8961486816405	969.5716552734376	531.2728881835939	-370.7868652343748	916.5333251953126	521.0612182617188	-406.3421020507811	947.6118774414064	459.8045349121094	-359.6559753417967	1031.35693359375	465.4869689941407	-319.8561401367186	950.5867309570314	414.2453918457032	-355.0071716308592	984.6116943359375	421.0149536132813	-241.5778656005858	1016.556884765625	406.4393005371094	-331.8820495605467	1024.382446289062	316.2991027832032	-341.2392578124998	982.9807739257814	258.2022094726563	-351.7654724121092	1044.972778320312	218.7977294921876	-335.4515686035155	951.6395874023439	163.4140167236329	-331.6344299316405	1038.21337890625	81.00737762451178	-307.726104736328	1056.903442382812	45.50798797607428	-246.7034454345701	1157.538696289062	82.3051834106446	-393.7568054199216	1119.8408203125	53.07479476928718	-398.8419189453123	nan	nan	nan	nan	nan	nan	nan	nan	nan	nan	nan	nan	nan	nan	nan	nan	nan	nan	nan	nan	nan	nan	nan	nan	nan	nan	nan	nan	nan	nan	nan	nan	nan	nan	nan	nan	nan	nan	nan	nan	nan	nan	nan	nan	nan	nan	nan	nan	nan	nan	nan	nan	nan	nan	nan	nan	nan	nan	nan	nan	nan	nan	nan	nan	nan	nan	nan	nan	nan	nan	nan	nan	nan	nan	nan	nan	nan	nan	nan	nan	nan	nan	nan	nan	nan	nan	nan	nan	nan	nan	nan	nan	nan	nan	nan	nan	nan	nan	nan	nan	nan	nan	nan	nan	nan	nan	nan	nan	nan	nan	nan	nan	nan	nan	nan	nan	nan	nan	nan	nan	
177	1.76	786.0433349609374	1297.671630859375	-52.46322631835923	805.7625732421874	1380.331909179688	-220.4559173583983	900.4353637695311	1278.78564453125	-236.0281372070311	735.9149169921874	1061.465087890625	-208.7043151855467	938.8383789062499	1045.311889648438	-233.8646087646483	920.602783203125	887.9761962890625	-95.84721374511702	735.747802734375	924.1123657226562	-153.8470001220702	731.5787353515625	912.0359497070312	-266.348419189453	914.1920776367189	897.6614990234375	-336.9935302734373	828.9696044921875	933.6210327148438	-380.754669189453	839.0147705078124	945.2847900390625	-53.21348190307602	839.3172607421875	594.6661987304688	-56.02340698242172	877.1057739257812	544.0375366210938	-92.82891082763656	825.8439331054688	497.3004760742188	-83.91505432128891	781.1956176757812	517.2799682617188	-42.38301086425767	769.4618530273438	436.9280700683594	-92.91071319580064	838.526611328125	422.1128540039063	-140.8158721923827	751.678466796875	395.4087219238282	-99.85956573486314	765.4845581054688	398.6698608398438	-214.1651000976561	802.2929077148438	365.6210021972657	-137.089385986328	770.3143310546875	246.5909118652344	-130.0284729003905	719.0778198242188	205.659164428711	-109.2616882324217	748.6454467773438	158.8804168701172	-145.8749389648436	652.70703125	146.1347351074219	-105.8259353637694	674.194580078125	77.89112091064457	-148.0510101318358	652.097412109375	39.20060348510746	-208.7846374511718	797.8717651367188	37.06784820556646	-86.27699279785142	742.7920532226562	15.69038867950444	-64.97421264648423	956.2295532226564	622.9536743164064	-381.579620361328	998.2127075195314	588.5440673828126	-346.8171081542967	976.2279052734376	528.3447265625001	-368.9894409179686	923.1228027343751	518.629638671875	-404.9987487792967	953.8908691406251	457.2894592285157	-358.2840881347655	1037.057739257812	463.3484802246094	-317.1728515624998	957.6743164062501	412.0654602050782	-354.0468444824217	990.3076782226562	418.3498840332032	-239.8873138427733	1023.824768066406	405.3448486328126	-330.5051269531248	1034.723022460938	316.2123718261719	-341.4102172851561	995.4047241210939	256.9078369140626	-353.2278747558592	1058.685546875	219.4198913574219	-337.1136779785155	967.5754394531251	160.8849792480469	-335.4212646484373	1056.892578125	80.9928283691407	-312.073272705078	1076.414916992188	45.47480392456061	-251.4481506347654	1177.732543945312	88.13488769531257	-396.9388427734373	1141.193481445312	57.5521316528321	-402.8697509765623	nan	nan	nan	nan	nan	nan	nan	nan	nan	nan	nan	nan	nan	nan	nan	nan	nan	nan	nan	nan	nan	nan	nan	nan	nan	nan	nan	nan	nan	nan	nan	nan	nan	nan	nan	nan	nan	nan	nan	nan	nan	nan	nan	nan	nan	nan	nan	nan	nan	nan	nan	nan	nan	nan	nan	nan	nan	nan	nan	nan	nan	nan	nan	nan	nan	nan	nan	nan	nan	nan	nan	nan	nan	nan	nan	nan	nan	nan	nan	nan	nan	nan	nan	nan	nan	nan	nan	nan	nan	nan	nan	nan	nan	nan	nan	nan	nan	nan	nan	nan	nan	nan	nan	nan	nan	nan	nan	nan	nan	nan	nan	nan	nan	nan	nan	nan	nan	nan	nan	nan	
178	1.77	794.8165893554686	1296.408813476562	-53.38346099853501	814.2756958007811	1378.983642578125	-221.5203552246092	909.3071289062499	1277.628662109375	-236.9365081787108	745.3500976562499	1059.97265625	-209.6911773681639	948.3460693359374	1044.066650390625	-234.2510528564451	928.8843994140625	886.5385742187501	-95.46449279785139	744.6478881835938	922.7960205078125	-155.173629760742	741.3947143554688	910.796142578125	-267.6888122558593	924.6068115234376	896.1673583984375	-336.8240966796873	839.7741088867188	932.1654663085938	-381.3162841796873	846.9509277343749	943.955078125	-53.73658370971664	846.1762084960938	593.3766479492188	-56.17805099487289	884.0478515625	542.51904296875	-92.52365875244125	832.58740234375	496.0420532226563	-84.09308624267562	787.6654052734375	516.217529296875	-42.95368957519517	775.989013671875	435.8665771484376	-93.51457977294908	845.35107421875	420.4826660156251	-140.6681365966795	757.8379516601562	394.5092163085938	-100.5859298706053	772.5244750976562	397.4256591796876	-214.6525268554686	808.1243896484375	363.9520568847657	-137.4950714111327	774.0302734375	245.2582702636719	-130.4974212646483	722.0189819335938	205.3529205322266	-109.8543243408202	750.7945556640625	158.0271148681641	-146.300094604492	654.507568359375	147.1341400146485	-106.427391052246	674.96533203125	78.39194488525395	-148.4510192871093	652.3751831054688	39.6675300598145	-209.1000518798827	797.9282836914062	37.06735610961919	-86.3404159545897	742.7509765625	15.93364429473882	-65.12596893310533	964.6015625000001	620.4226684570314	-380.2219238281248	1005.657958984375	585.5104980468751	-344.9075622558592	983.3506469726564	525.5919189453126	-367.4420471191405	930.4229125976564	516.4377441406251	-404.058135986328	960.5864868164064	454.9342956542969	-357.3423767089842	1043.042846679688	461.1245422363282	-314.7746582031248	964.9191894531251	410.0003051757813	-353.5140991210936	995.97509765625	415.6580200195313	-238.6190032958983	1031.067749023438	404.0713195800782	-329.3419799804686	1044.497802734375	315.9250793457032	-341.6763610839842	1006.971618652344	255.7327880859376	-354.8836364746092	1071.090209960938	219.7758026123047	-338.701202392578	981.8574829101564	158.8330383300782	-339.428253173828	1073.141845703125	80.94591522216804	-316.2306518554686	1092.892333984375	45.27348327636725	-255.9107666015623	1195.736938476562	93.0690002441407	-399.1652221679685	1160.32080078125	61.36548995971687	-406.1140441894529	nan	nan	nan	nan	nan	nan	nan	nan	nan	nan	nan	nan	nan	nan	nan	nan	nan	nan	nan	nan	nan	nan	nan	nan	nan	nan	nan	nan	nan	nan	nan	nan	nan	nan	nan	nan	nan	nan	nan	nan	nan	nan	nan	nan	nan	nan	nan	nan	nan	nan	nan	nan	nan	nan	nan	nan	nan	nan	nan	nan	nan	nan	nan	nan	nan	nan	nan	nan	nan	nan	nan	nan	nan	nan	nan	nan	nan	nan	nan	nan	nan	nan	nan	nan	nan	nan	nan	nan	nan	nan	nan	nan	nan	nan	nan	nan	nan	nan	nan	nan	nan	nan	nan	nan	nan	nan	nan	nan	nan	nan	nan	nan	nan	nan	nan	nan	nan	nan	nan	nan	
179	1.78	803.5079956054686	1295.0654296875	-54.48320770263657	822.7799682617186	1377.589721679688	-222.7359008789061	918.2119140624999	1276.449340820312	-237.9494323730467	754.9120483398436	1058.40478515625	-210.7692871093749	957.9830322265624	1042.81103515625	-234.6887817382811	937.2960205078125	885.0162353515626	-95.12093353271467	753.704833984375	921.36181640625	-156.5492858886717	751.3499145507812	909.4921264648438	-269.0673828124999	935.1704711914064	894.6832275390626	-336.7022705078123	850.7024536132812	930.699462890625	-381.9241638183592	855.0028686523436	942.4967651367188	-54.31715011596664	853.1651000976562	592.0092163085938	-56.36102676391586	891.0962524414062	540.8911743164062	-92.23952484130842	839.4511108398438	494.7008666992188	-84.27609252929672	794.2576904296875	515.0849609375	-43.51854705810532	782.6224365234375	434.7286376953126	-94.1081161499022	852.2640991210938	418.7440185546876	-140.5246124267576	764.091796875	393.5502319335938	-101.2855224609374	779.6365966796875	396.0723571777344	-215.1110687255858	813.999267578125	362.1986083984376	-137.9094238281249	777.7631225585938	243.9028930664063	-130.9656524658202	725.0015258789062	205.0542449951172	-110.4402008056639	752.943115234375	157.1838378906251	-146.7277374267577	656.3663330078125	148.1708526611328	-107.0041122436522	675.7513427734375	78.95114135742192	-148.8448944091796	652.6622924804688	40.20474624633793	-209.4220733642577	797.9846801757812	37.08372116088872	-86.4141693115233	742.7127075195312	16.20657730102544	-65.30042266845689	973.4666137695314	618.1127929687501	-379.0218505859373	1013.584716796875	582.6683959960939	-343.204864501953	990.9892578125001	523.0683593750001	-366.1893310546873	938.5186157226564	514.5419311523439	-403.567169189453	967.7352905273439	452.7822875976563	-356.871856689453	1049.349609375	458.8320922851563	-312.7342529296873	972.3392333984376	408.0756225585938	-353.4395141601561	1001.667175292969	412.9730224609376	-237.834259033203	1038.308471679688	402.6338195800782	-328.4435424804686	1053.729736328125	315.4112243652344	-342.0561523437498	1017.683288574219	254.6263885498047	-356.7055053710936	1082.205688476562	219.7608032226563	-340.2049255371092	994.4180297851564	157.1245269775391	-343.5136108398436	1086.924560546875	80.66864013671882	-320.077941894531	1106.27783203125	44.71990585327156	-259.9493713378904	1211.506713867188	96.6344299316407	-400.2787170410154	1177.15673828125	64.02790069580085	-408.367980957031	nan	nan	nan	nan	nan	nan	nan	nan	nan	nan	nan	nan	nan	nan	nan	nan	nan	nan	nan	nan	nan	nan	nan	nan	nan	nan	nan	nan	nan	nan	nan	nan	nan	nan	nan	nan	nan	nan	nan	nan	nan	nan	nan	nan	nan	nan	nan	nan	nan	nan	nan	nan	nan	nan	nan	nan	nan	nan	nan	nan	nan	nan	nan	nan	nan	nan	nan	nan	nan	nan	nan	nan	nan	nan	nan	nan	nan	nan	nan	nan	nan	nan	nan	nan	nan	nan	nan	nan	nan	nan	nan	nan	nan	nan	nan	nan	nan	nan	nan	nan	nan	nan	nan	nan	nan	nan	nan	nan	nan	nan	nan	nan	nan	nan	nan	nan	nan	nan	nan	nan	
